<svg width="24" height="24" viewBox="0 0 24 24" fill="none" xmlns="http://www.w3.org/2000/svg">
<path fill-rule="evenodd" clip-rule="evenodd" d="M6 2H18C20.2091 2 22 3.79086 22 6V18C22 20.2091 20.2091 22 18 22H6C3.79086 22 2 20.2091 2 18V6C2 3.79086 3.79086 2 6 2ZM18.0405 8.70711C18.431 8.31658 18.431 7.68342 18.0405 7.29289C17.6499 6.90237 17.0168 6.90237 16.6262 7.29289L10 13.9191L7.37379 11.2929C6.98327 10.9024 6.3501 10.9024 5.95958 11.2929C5.56906 11.6834 5.56906 12.3166 5.95958 12.7071L9.29291 16.0404C9.68344 16.431 10.3166 16.431 10.7071 16.0404L18.0405 8.70711Z" fill="#04C600"/>
</svg>
